<svg width="48" height="48" viewBox="0 0 48 48" fill="none" xmlns="http://www.w3.org/2000/svg">
<circle cx="24" cy="24" r="23.5" fill="white" stroke="url(#paint0_linear_112_1882)"/>
<path d="M22.2235 22.7996C21.5441 22.7996 21.0078 23.3836 21.0078 24.096C21.0078 24.8085 21.5561 25.3925 22.2235 25.3925C22.9028 25.3925 23.4392 24.8085 23.4392 24.096C23.4511 23.3836 22.9028 22.7996 22.2235 22.7996ZM26.5737 22.7996C25.8943 22.7996 25.358 23.3836 25.358 24.096C25.358 24.8085 25.9063 25.3925 26.5737 25.3925C27.253 25.3925 27.7894 24.8085 27.7894 24.096C27.7894 23.3836 27.253 22.7996 26.5737 22.7996Z" fill="url(#paint1_linear_112_1882)"/>
<path d="M32.4139 13H16.4433C15.0965 13 14 14.0746 14 15.4061V31.1974C14 32.529 15.0965 33.6035 16.4433 33.6035H29.9587L29.327 31.4427L30.8526 32.8326L32.2947 34.1408L34.8571 36.36V15.4061C34.8571 14.0746 33.7607 13 32.4139 13ZM27.8134 28.2541C27.8134 28.2541 27.3843 27.7518 27.0268 27.308C28.5881 26.8758 29.184 25.9181 29.184 25.9181C28.6953 26.2334 28.2305 26.4554 27.8134 26.6072C27.2175 26.8525 26.6454 27.016 26.0852 27.1094C24.9411 27.3197 23.8922 27.2613 22.9984 27.0978C22.319 26.9693 21.735 26.7824 21.2464 26.5955C20.9722 26.4904 20.6743 26.3619 20.3763 26.1984C20.3406 26.175 20.3048 26.1634 20.2691 26.14C20.2452 26.1283 20.2333 26.1166 20.2214 26.105C20.0069 25.9882 19.8877 25.9064 19.8877 25.9064C19.8877 25.9064 20.4598 26.8408 21.9734 27.2846C21.6158 27.7285 21.1749 28.2541 21.1749 28.2541C18.5409 28.1723 17.5398 26.4787 17.5398 26.4787C17.5398 22.7178 19.256 19.6693 19.256 19.6693C20.9722 18.4078 22.6051 18.4429 22.6051 18.4429L22.7242 18.583C20.5789 19.1904 19.5897 20.1131 19.5897 20.1131C19.5897 20.1131 19.8519 19.973 20.2929 19.7744C21.5682 19.2254 22.5812 19.0736 22.9984 19.0386C23.0699 19.0269 23.1295 19.0152 23.201 19.0152C23.928 18.9218 24.7504 18.8984 25.6085 18.9918C26.7407 19.1203 27.9564 19.4474 29.1959 20.1131C29.1959 20.1131 28.2544 19.2371 26.2282 18.6298L26.3951 18.4429C26.3951 18.4429 28.0279 18.4078 29.7442 19.6693C29.7442 19.6693 31.4604 22.7178 31.4604 26.4787C31.4604 26.4787 30.4473 28.1723 27.8134 28.2541Z" fill="url(#paint2_linear_112_1882)"/>
<defs>
<linearGradient id="paint0_linear_112_1882" x1="57.8734" y1="10.0253" x2="20.9504" y2="-8.42855" gradientUnits="userSpaceOnUse">
<stop stop-color="#FF4581"/>
<stop offset="1" stop-color="#4388DD"/>
</linearGradient>
<linearGradient id="paint1_linear_112_1882" x1="34.4398" y1="35.776" x2="15.1678" y2="13.584" gradientUnits="userSpaceOnUse">
<stop stop-color="#FF4581"/>
<stop offset="1" stop-color="#4388DD"/>
</linearGradient>
<linearGradient id="paint2_linear_112_1882" x1="35.024" y1="36.36" x2="14" y2="13" gradientUnits="userSpaceOnUse">
<stop stop-color="#FF4581"/>
<stop offset="1" stop-color="#4388DD"/>
</linearGradient>
</defs>
</svg>
