<svg xmlns="http://www.w3.org/2000/svg" width="24" height="24" viewBox="0 0 24 24" fill="none">
<path fill-rule="evenodd" clip-rule="evenodd" d="M21.3549 11.9987C21.3473 11.4872 21.308 10.9767 21.2373 10.47L23.8826 10.4696C23.9509 10.9766 23.9901 11.4872 24 11.9987C23.9993 13.6022 23.6775 15.1893 23.0538 16.6663C22.43 18.1433 21.5169 19.4804 20.3683 20.5986C19.2197 21.7168 17.8588 22.5935 16.366 23.1769C14.8733 23.7603 13.2788 24.0386 11.6768 23.9954C10.0748 23.9522 8.4976 23.5884 7.03839 22.9254C5.57919 22.2624 4.26749 21.3137 3.18071 20.1352C2.09393 18.9568 1.25409 17.5725 0.710737 16.064C0.167388 14.5555 -0.0684561 12.9533 0.0171216 11.3522C0.369636 5.11777 5.60136 0.0597882 11.891 0.00113857C14.5338 -0.0264581 17.1109 0.824999 19.2176 2.42179C21.3242 4.01858 22.8411 6.27025 23.53 8.82317H9.53965C9.43841 8.81921 9.33767 8.83938 9.24575 8.88203C9.01068 8.94067 8.89304 9.11723 8.7756 9.35243C8.72221 9.44055 8.7014 9.5446 8.71678 9.64649C8.71278 9.74779 8.73295 9.84858 8.7756 9.94054C8.82096 10.046 8.88024 10.1449 8.95186 10.2346L12.2431 13.5282H4.54321C4.3668 12.5362 4.3668 11.5207 4.54321 10.5287C4.86901 8.92028 5.70116 7.45861 6.91769 6.35789C8.13422 5.25717 9.67116 4.57528 11.3032 4.41216C12.4147 4.31491 13.5339 4.46486 14.5807 4.85124C15.6274 5.23763 16.5758 5.8509 17.3578 6.64709C17.5269 6.8256 17.7589 6.93109 18.0044 6.94114C18.1819 6.94205 18.3556 6.8904 18.5037 6.79271C18.6519 6.69502 18.7678 6.55565 18.837 6.39215C18.9061 6.22866 18.9253 6.04835 18.8923 5.87393C18.8592 5.69952 18.7752 5.5388 18.651 5.41202C17.684 4.43366 16.5144 3.67911 15.2247 3.20142C13.9349 2.72373 12.5563 2.5345 11.1856 2.64702C9.34053 2.83488 7.58866 3.55068 6.13961 4.70877C4.69056 5.86686 3.60571 7.41818 3.01491 9.17709C2.46765 10.9158 2.44718 12.7778 2.95609 14.5281C2.98995 14.562 3.00432 14.5764 3.01041 14.5937C3.01491 14.6064 3.01491 14.6207 3.01491 14.6456C3.65423 16.8028 5.0482 18.6578 6.94195 19.8713C8.83569 21.0848 11.1027 21.5758 13.3285 21.2546C15.5543 20.9333 17.5902 19.8213 19.064 18.1218C20.5378 16.4222 21.351 14.2488 21.3549 11.9987ZM14.7713 15.1751C14.9817 15.0831 15.1496 14.915 15.2415 14.7045C15.2742 14.5692 15.2742 14.428 15.2415 14.2927C15.2454 14.1914 15.2253 14.0907 15.1828 13.9987C15.1374 13.8932 15.078 13.7943 15.0064 13.7046L11.7145 10.4112H19.4142C19.5908 11.4032 19.5908 12.4186 19.4142 13.4106C19.1095 14.9768 18.319 16.4071 17.155 17.498C15.9911 18.5888 14.513 19.2847 12.931 19.4866C11.349 19.6885 9.74363 19.3862 8.34324 18.6227C6.94284 17.8592 5.81872 16.6733 5.13074 15.2337H14.4774C14.5786 15.2377 14.6794 15.2176 14.7713 15.1751Z" fill="url(#paint0_linear_4258_8371)"/>
<defs>
<linearGradient id="paint0_linear_4258_8371" x1="-4.38598" y1="1.97297" x2="20.3897" y2="17.135" gradientUnits="userSpaceOnUse">
<stop stop-color="#A229C5"/>
<stop offset="1" stop-color="#7B3FE4"/>
</linearGradient>
</defs>
</svg>