<svg width="240" height="71" viewBox="0 0 240 71" fill="none" xmlns="http://www.w3.org/2000/svg">
<path d="M45.1175 43.506C44.7695 44.202 44.2475 44.7241 43.7254 44.8981C43.3774 45.0721 43.0294 45.0721 42.8553 45.0721H15.187C19.0153 53.0768 27.542 58.4712 37.1129 57.7752C47.0317 57.0791 55.5584 49.5965 57.4726 39.6776C57.9946 36.5454 57.9946 33.5871 57.4726 30.8029H34.6766L44.4215 40.5477C44.5955 40.7217 44.7695 41.0697 44.9435 41.4178C45.1175 41.7658 45.1175 42.1138 45.1175 42.2878C45.2915 42.9839 45.1175 43.3319 45.1175 43.506Z" fill="url(#paint0_radial_3_5)"/>
<path d="M62.8671 30.9766C63.0411 32.3688 63.2151 33.9349 63.2151 35.501C63.2151 50.8143 50.8601 63.1693 35.5468 63.1693C23.0177 63.1693 12.4029 54.8166 8.92257 43.3317C8.92257 43.1577 8.92257 43.1577 8.74856 42.9837C7.35644 38.1112 7.18243 32.7168 8.92257 27.1483C12.5769 16.5334 21.9737 8.87679 33.1106 7.8327C41.8113 7.13664 49.642 10.4429 55.2104 16.0114C56.7766 17.7515 55.7325 20.5358 53.2963 20.5358C52.6002 20.5358 51.9042 20.1877 51.3821 19.6657C47.0318 15.1413 40.5932 12.5311 33.4586 13.0531C23.7138 13.9232 15.3611 21.4058 13.4469 31.1507C12.9249 34.2829 12.9249 37.2412 13.4469 40.0254H36.2429L26.498 30.2806C26.324 30.1066 26.15 29.7585 25.976 29.4105C25.802 29.0625 25.802 28.7145 25.802 28.5404C25.802 28.1924 25.802 27.8444 25.976 27.6704C26.324 26.9743 26.6721 26.4523 27.3681 26.2782C27.7161 26.1042 28.0642 26.1042 28.2382 26.1042H55.7325H61.475H69.6537C65.4773 10.7909 51.5561 -0.171972 35.1988 0.00204248C16.5792 0.176057 1.09192 15.1413 0.0478281 33.5869C-0.996259 54.1206 15.1871 71 35.5468 71C55.2104 71 71.0458 55.1647 71.0458 35.501C71.0458 33.9349 70.8718 32.5428 70.6977 30.9766H62.8671Z" fill="url(#paint1_radial_3_5)"/>
<path d="M100.229 26.1039L97.4447 27.67C96.9226 26.7999 96.4006 26.2779 96.0526 25.9299C95.5305 25.5818 95.0085 25.4078 94.1384 25.4078C93.2683 25.4078 92.3982 25.7559 91.8762 26.2779C91.1801 26.7999 91.0061 27.496 91.0061 28.1921C91.0061 29.2361 91.8762 30.1062 93.4423 30.8023L95.7045 31.6723C97.6187 32.3684 98.8368 33.2385 99.7069 34.4566C100.577 35.5007 100.925 36.8928 100.925 38.4589C100.925 40.5471 100.229 42.2872 98.8368 43.6794C97.4447 45.0715 95.7045 45.7675 93.6163 45.7675C91.7022 45.7675 89.962 45.2455 88.7439 44.0274C87.5258 42.8093 86.6558 41.2432 86.4818 39.155L89.962 38.4589C90.1361 39.851 90.3101 40.7211 90.8321 41.2432C91.5282 42.2872 92.5723 42.6353 93.9644 42.6353C95.0085 42.6353 95.8785 42.2872 96.5746 41.5912C97.2707 40.8951 97.6187 40.025 97.6187 38.8069C97.6187 38.2849 97.6187 37.9369 97.4447 37.5888C97.2707 37.2408 97.0966 36.8928 96.9226 36.5448C96.7486 36.1967 96.4006 36.0227 95.8785 35.6747C95.5305 35.3267 95.0085 35.1526 94.4864 34.9786L92.3982 34.1086C89.266 32.8905 87.6998 30.9763 87.6998 28.3661C87.6998 26.6259 88.3959 25.2338 89.614 24.1897C90.8321 22.9716 92.5723 22.4496 94.4864 22.4496C96.7486 22.2756 98.6628 23.4937 100.229 26.1039Z" fill="#414042"/>
<path d="M109.8 30.9763V39.155C109.8 41.5912 110.67 42.6353 112.584 42.6353C114.498 42.6353 115.368 41.4172 115.368 39.155V30.9763H118.674V39.155C118.674 40.3731 118.5 41.2432 118.326 42.1132C117.978 42.8093 117.63 43.5053 116.934 44.0274C115.89 45.0715 114.498 45.4195 112.758 45.4195C111.018 45.4195 109.626 44.8975 108.582 44.0274C107.886 43.5053 107.363 42.8093 107.189 42.1132C106.841 41.4172 106.841 40.5471 106.841 39.155V30.9763H109.8Z" fill="#414042"/>
<path d="M128.245 20.5356V32.5426C129.637 31.1505 131.029 30.4544 132.77 30.4544C134.684 30.4544 136.25 31.1505 137.468 32.5426C138.686 33.9347 139.382 35.6749 139.382 37.937C139.382 40.1992 138.686 41.9394 137.468 43.3315C136.25 44.7236 134.51 45.4197 132.596 45.4197C131.029 45.4197 129.463 44.7236 128.245 43.5055V45.2457H124.939V20.5356H128.245ZM136.076 38.1111C136.076 36.7189 135.728 35.6749 135.032 34.8048C134.336 33.9347 133.292 33.4127 132.248 33.4127C131.029 33.4127 129.985 33.7607 129.289 34.6308C128.593 35.5008 128.245 36.5449 128.245 37.937C128.245 39.3292 128.593 40.3732 129.289 41.2433C129.985 42.1134 131.029 42.4614 132.248 42.4614C133.466 42.4614 134.336 42.1134 135.032 41.2433C135.728 40.5473 136.076 39.5032 136.076 38.1111Z" fill="#414042"/>
<path d="M168.617 45.5935H164.266L162.526 43.8533C160.612 45.0714 158.524 45.5935 156.262 45.5935C153.303 45.5935 150.693 44.5494 148.257 42.6352C145.821 40.373 144.429 37.5888 144.429 34.1085C144.429 30.8022 145.647 27.844 148.083 25.5818C150.345 23.3196 153.129 22.2755 156.262 22.2755C159.046 22.2755 161.656 23.3196 163.918 25.2338C166.703 27.496 167.921 30.6282 167.921 34.2825C167.921 37.2408 166.877 39.851 164.614 42.1132L168.617 45.5935ZM159.394 36.1967L162.7 39.503C164.092 37.9368 164.788 36.1967 164.788 33.9345C164.788 31.4983 163.918 29.4101 162.352 27.844C160.786 26.2778 158.698 25.4078 156.436 25.4078C153.999 25.4078 152.085 26.2778 150.519 27.844C148.953 29.4101 148.257 31.4983 148.257 33.9345C148.257 36.3707 149.127 38.2849 150.693 39.851C152.433 41.4171 154.347 42.2872 156.436 42.2872C157.828 42.2872 159.22 41.9392 160.438 41.2431L155.218 36.0227H159.394V36.1967Z" fill="#414042"/>
<path d="M177.317 30.9763V39.155C177.317 41.5912 178.187 42.6353 180.102 42.6353C182.016 42.6353 182.886 41.4172 182.886 39.155V30.9763H186.192V39.155C186.192 40.3731 186.018 41.2432 185.844 42.1132C185.496 42.8093 185.148 43.5053 184.452 44.0274C183.408 45.0715 182.016 45.4195 180.276 45.4195C178.535 45.4195 177.143 44.8975 176.099 44.0274C175.403 43.5053 174.881 42.8093 174.707 42.1132C174.359 41.4172 174.359 40.5471 174.359 39.155V30.9763H177.317Z" fill="#414042"/>
<path d="M205.508 38.8069H195.415C195.589 40.025 195.937 40.8951 196.633 41.5912C197.329 42.2872 198.199 42.6352 199.243 42.6352C200.113 42.6352 200.809 42.4612 201.331 42.1132C201.853 41.7652 202.375 41.0691 203.071 40.025L205.856 41.5912C205.508 42.2872 204.986 42.9833 204.464 43.5053C203.942 44.0274 203.419 44.3754 202.897 44.7234C202.375 45.0714 201.679 45.2455 201.157 45.4195C200.461 45.5935 199.765 45.5935 199.069 45.5935C196.981 45.5935 195.241 44.8974 194.023 43.5053C192.805 42.1132 192.109 40.3731 192.109 38.1109C192.109 35.8487 192.805 34.1085 194.023 32.7164C195.241 31.3243 196.981 30.6282 199.069 30.6282C201.157 30.6282 202.897 31.3243 203.942 32.5424C205.16 33.9345 205.682 35.6747 205.682 38.1109L205.508 38.8069ZM202.201 36.1967C201.679 34.4566 200.635 33.5865 198.895 33.5865C198.547 33.5865 198.199 33.5865 197.851 33.7605C197.503 33.9345 197.155 34.1085 196.981 34.2825C196.633 34.4566 196.459 34.8046 196.285 35.1526C196.111 35.5006 195.937 35.8487 195.763 36.1967H202.201Z" fill="#414042"/>
<path d="M211.424 30.9763H214.731V32.1944C215.253 31.4983 215.949 31.1503 216.297 30.9763C216.819 30.8022 217.341 30.6282 218.037 30.6282C218.907 30.6282 219.777 30.9763 220.821 31.4983L219.255 34.4566C218.559 33.9345 218.037 33.7605 217.515 33.7605C215.775 33.7605 214.905 35.1526 214.905 37.7628V45.2455H211.598V30.9763H211.424Z" fill="#414042"/>
<path d="M230.566 42.4613L224.127 30.9763H227.956L232.306 39.155L236.308 30.9763H239.963L228.652 52.9021H224.823L230.566 42.4613Z" fill="#414042"/>
<defs>
<radialGradient id="paint0_radial_3_5" cx="0" cy="0" r="1" gradientUnits="userSpaceOnUse" gradientTransform="translate(5.77713 -0.435165) scale(79.0924 79.0924)">
<stop offset="0.475" stop-color="#4388DD"/>
<stop offset="0.9988" stop-color="#FF4581"/>
</radialGradient>
<radialGradient id="paint1_radial_3_5" cx="0" cy="0" r="1" gradientUnits="userSpaceOnUse" gradientTransform="translate(5.77721 -0.435429) scale(79.0924 79.0924)">
<stop offset="0.475" stop-color="#4388DD"/>
<stop offset="0.9988" stop-color="#FF4581"/>
</radialGradient>
</defs>
</svg>
