<svg width="163" height="48" viewBox="0 0 163 48" fill="none" xmlns="http://www.w3.org/2000/svg">
<path d="M30.502 29.4125C30.2668 29.883 29.9138 30.236 29.5609 30.3536C29.3256 30.4712 29.0903 30.4712 28.9727 30.4712H10.2673C12.8555 35.8829 18.62 39.5298 25.0904 39.0592C31.7961 38.5887 37.5607 33.53 38.8547 26.8243C39.2077 24.7067 39.2077 22.7068 38.8547 20.8245H23.4434L30.0315 27.4125C30.1491 27.5302 30.2668 27.7654 30.3844 28.0007C30.502 28.236 30.502 28.4713 30.502 28.5889C30.6197 29.0595 30.502 29.2948 30.502 29.4125Z" fill="url(#paint0_radial_112_1814)"/>
<path d="M42.5017 20.942C42.6193 21.8831 42.737 22.9419 42.737 24.0007C42.737 34.3533 34.3843 42.706 24.0316 42.706C15.5613 42.706 8.38503 37.0591 6.03216 29.2947C6.03216 29.177 6.03216 29.177 5.91452 29.0594C4.97337 25.7653 4.85572 22.1184 6.03216 18.3538C8.50268 11.1775 14.8554 6.00121 22.3846 5.29535C28.2668 4.82477 33.5608 7.06 37.3254 10.8246C38.3842 12.001 37.6783 13.8833 36.0313 13.8833C35.5607 13.8833 35.0901 13.648 34.7372 13.2951C31.7961 10.2364 27.4433 8.47173 22.6199 8.82466C16.0319 9.41288 10.385 14.4716 9.0909 21.0596C8.73796 23.1772 8.73796 25.1771 9.0909 27.0594H24.5022L17.9142 20.4714C17.7965 20.3537 17.6789 20.1184 17.5612 19.8832C17.4436 19.6479 17.4436 19.4126 17.4436 19.2949C17.4436 19.0597 17.4436 18.8244 17.5612 18.7067C17.7965 18.2362 18.0318 17.8832 18.5024 17.7656C18.7377 17.6479 18.973 17.6479 19.0906 17.6479H37.6783H41.5605H47.0898C44.2663 7.29529 34.8549 -0.116263 23.7964 0.00138083C11.2085 0.119025 0.738196 10.2364 0.0323345 22.7066C-0.673527 36.5886 10.2673 48 24.0316 48C37.3254 48 48.0309 37.2944 48.0309 24.0007C48.0309 22.9419 47.9133 22.0007 47.7957 20.942H42.5017Z" fill="url(#paint1_radial_112_1814)"/>
<path d="M67.7604 17.6477L65.8781 18.7065C65.5252 18.1183 65.1722 17.7653 64.937 17.53C64.584 17.2948 64.2311 17.1771 63.6429 17.1771C63.0547 17.1771 62.4664 17.4124 62.1135 17.7653C61.6429 18.1183 61.5253 18.5888 61.5253 19.0594C61.5253 19.7653 62.1135 20.3535 63.1723 20.8241L64.7017 21.4123C65.9957 21.8829 66.8193 22.4711 67.4075 23.2946C67.9957 24.0004 68.231 24.9416 68.231 26.0004C68.231 27.4121 67.7604 28.5885 66.8193 29.5297C65.8781 30.4708 64.7017 30.9414 63.2899 30.9414C61.9959 30.9414 60.8194 30.5885 59.9959 29.765C59.1724 28.9415 58.5842 27.8827 58.4666 26.471L60.8194 26.0004C60.9371 26.9415 61.0547 27.5298 61.4076 27.8827C61.8782 28.5885 62.5841 28.8238 63.5252 28.8238C64.2311 28.8238 64.8193 28.5885 65.2899 28.118C65.7605 27.6474 65.9957 27.0592 65.9957 26.2357C65.9957 25.8827 65.9957 25.6475 65.8781 25.4122C65.7605 25.1769 65.6428 24.9416 65.5252 24.7063C65.4075 24.471 65.1722 24.3534 64.8193 24.1181C64.584 23.8828 64.2311 23.7652 63.8782 23.6475L62.4664 23.0593C60.3488 22.2358 59.2901 20.9417 59.2901 19.1771C59.2901 18.0006 59.7606 17.0595 60.5841 16.3536C61.4076 15.5301 62.5841 15.1772 63.8782 15.1772C65.4075 15.0595 66.7016 15.883 67.7604 17.6477Z" fill="#414042"/>
<path d="M74.2307 20.9417V26.471C74.2307 28.118 74.8189 28.8238 76.113 28.8238C77.407 28.8238 77.9953 28.0003 77.9953 26.471V20.9417H80.2305V26.471C80.2305 27.2945 80.1128 27.8827 79.9952 28.4709C79.7599 28.9415 79.5246 29.4121 79.054 29.765C78.3482 30.4708 77.407 30.7061 76.2306 30.7061C75.0542 30.7061 74.113 30.3532 73.4071 29.765C72.9366 29.4121 72.5836 28.9415 72.466 28.4709C72.2307 28.0003 72.2307 27.4121 72.2307 26.471V20.9417H74.2307Z" fill="#414042"/>
<path d="M86.7011 13.8832V22.0006C87.6422 21.0594 88.5833 20.5889 89.7598 20.5889C91.0539 20.5889 92.1127 21.0594 92.9362 22.0006C93.7597 22.9417 94.2302 24.1182 94.2302 25.6475C94.2302 27.1769 93.7597 28.3533 92.9362 29.2945C92.1127 30.2356 90.9362 30.7062 89.6421 30.7062C88.5834 30.7062 87.5246 30.2356 86.7011 29.4121V30.5886H84.4658V13.8832H86.7011ZM91.995 25.7652C91.995 24.824 91.7597 24.1182 91.2892 23.53C90.8186 22.9417 90.1127 22.5888 89.4069 22.5888C88.5833 22.5888 87.8775 22.8241 87.4069 23.4123C86.9363 24.0005 86.7011 24.7064 86.7011 25.6475C86.7011 26.5887 86.9363 27.2946 87.4069 27.8828C87.8775 28.471 88.5833 28.7063 89.4069 28.7063C90.2304 28.7063 90.8186 28.471 91.2892 27.8828C91.7597 27.4122 91.995 26.7063 91.995 25.7652Z" fill="#414042"/>
<path d="M113.994 30.8238H111.053L109.877 29.6473C108.583 30.4708 107.171 30.8238 105.642 30.8238C103.642 30.8238 101.877 30.1179 100.23 28.8238C98.583 27.2945 97.6418 25.4122 97.6418 23.0593C97.6418 20.824 98.4654 18.8241 100.112 17.2947C101.642 15.7654 103.524 15.0595 105.642 15.0595C107.524 15.0595 109.289 15.7654 110.818 17.0595C112.7 18.5888 113.524 20.7064 113.524 23.1769C113.524 25.1769 112.818 26.9415 111.289 28.4709L113.994 30.8238ZM107.759 24.471L109.994 26.7062C110.936 25.6474 111.406 24.471 111.406 22.9416C111.406 21.2946 110.818 19.8829 109.759 18.8241C108.7 17.7653 107.289 17.1771 105.759 17.1771C104.112 17.1771 102.818 17.7653 101.759 18.8241C100.701 19.8829 100.23 21.2946 100.23 22.9416C100.23 24.5886 100.818 25.8827 101.877 26.9415C103.053 28.0003 104.348 28.5885 105.759 28.5885C106.7 28.5885 107.642 28.3532 108.465 27.8827L104.936 24.3534H107.759V24.471Z" fill="#414042"/>
<path d="M119.876 20.9417V26.471C119.876 28.118 120.465 28.8238 121.759 28.8238C123.053 28.8238 123.641 28.0003 123.641 26.471V20.9417H125.876V26.471C125.876 27.2945 125.759 27.8827 125.641 28.4709C125.406 28.9415 125.17 29.4121 124.7 29.765C123.994 30.4708 123.053 30.7061 121.876 30.7061C120.7 30.7061 119.759 30.3532 119.053 29.765C118.582 29.4121 118.229 28.9415 118.112 28.4709C117.876 28.0003 117.876 27.4121 117.876 26.471V20.9417H119.876Z" fill="#414042"/>
<path d="M138.935 26.2356H132.111C132.229 27.0591 132.464 27.6473 132.935 28.1179C133.406 28.5885 133.994 28.8238 134.7 28.8238C135.288 28.8238 135.758 28.7061 136.111 28.4708C136.464 28.2356 136.817 27.765 137.288 27.0591L139.17 28.1179C138.935 28.5885 138.582 29.0591 138.229 29.412C137.876 29.7649 137.523 30.0002 137.17 30.2355C136.817 30.4708 136.347 30.5884 135.994 30.7061C135.523 30.8237 135.053 30.8237 134.582 30.8237C133.17 30.8237 131.994 30.3531 131.17 29.412C130.347 28.4708 129.876 27.2944 129.876 25.765C129.876 24.2357 130.347 23.0592 131.17 22.1181C131.994 21.1769 133.17 20.7064 134.582 20.7064C135.994 20.7064 137.17 21.1769 137.876 22.0004C138.699 22.9416 139.052 24.118 139.052 25.765L138.935 26.2356ZM136.7 24.471C136.347 23.2945 135.641 22.7063 134.464 22.7063C134.229 22.7063 133.994 22.7063 133.758 22.8239C133.523 22.9416 133.288 23.0592 133.17 23.1769C132.935 23.2945 132.817 23.5298 132.7 23.7651C132.582 24.0004 132.464 24.2357 132.347 24.471H136.7Z" fill="#414042"/>
<path d="M142.935 20.9416H145.17V21.7652C145.523 21.2946 145.993 21.0593 146.229 20.9416C146.582 20.824 146.934 20.7064 147.405 20.7064C147.993 20.7064 148.581 20.9416 149.287 21.2946L148.229 23.2945C147.758 22.9416 147.405 22.8239 147.052 22.8239C145.876 22.8239 145.287 23.7651 145.287 25.5298V30.5884H143.052V20.9416H142.935Z" fill="#414042"/>
<path d="M155.876 28.7062L151.523 20.9417H154.111L157.052 26.471L159.758 20.9417H162.228L154.581 35.7648H151.993L155.876 28.7062Z" fill="#414042"/>
<defs>
<radialGradient id="paint0_radial_112_1814" cx="0" cy="0" r="1" gradientUnits="userSpaceOnUse" gradientTransform="translate(3.90572 -0.294221) scale(53.4709)">
<stop offset="0.475" stop-color="#4388DD"/>
<stop offset="0.9988" stop-color="#FF4581"/>
</radialGradient>
<radialGradient id="paint1_radial_112_1814" cx="0" cy="0" r="1" gradientUnits="userSpaceOnUse" gradientTransform="translate(3.90572 -0.294375) scale(53.4709)">
<stop offset="0.475" stop-color="#4388DD"/>
<stop offset="0.9988" stop-color="#FF4581"/>
</radialGradient>
</defs>
</svg>
